{"title":"3 girls strap on","uid":6650143,"size":178585600,"categoryP":"porn","categoryS":"movie_clips","magnet":"?xt=urn:btih:48704baa75f84db639bcbbdfcb96e09549465183&amp;dn=3+girls+strap+on&amp;tr=udp%3A%2F%2Ftracker.openbittorrent.com%3A80&amp;tr=udp%3A%2F%2Fopen.demonii.com%3A1337&amp;tr=udp%3A%2F%2Ftracker.coppersurfer.tk%3A6969&amp;tr=udp%3A%2F%2Fexodus.desync.com%3A6969","seeders":0,"leechers":0,"uploader":"stu181","files":1,"time":1315115970,"description":"Brought to you by  &lt;a href=&quot; http://www.protorrent.co.uk&quot; rel=&quot;nofollow&quot; target=&quot;_NEW&quot;&gt; http://www.protorrent.co.uk&lt;/a&gt;\n\nFormat                           : MPEG-PS\nFile size                        : 170 MiB\nDuration                         : 17mn 4s\nOverall bit rate                 : 1 394 Kbps\n\nVideo\nID                               : 224 (0xE0)\nFormat                           : MPEG Video\nFormat version                   : Version 1\nFormat settings, BVOP            : Yes\nFormat settings, Matrix          : Custom\nDuration                         : 17mn 4s\nBit rate                         : 1 142 Kbps\nMaximum bit rate                 : 1 150 Kbps\nWidth                            : 352 pixels\nHeight                           : 240 pixels\nDisplay aspect ratio             : 4:3\nFrame rate                       : 29.970 fps\nStandard                         : NTSC\nColor space                      : YUV\nBit depth                        : 8 bits\nScan type                        : Progressive\nCompression mode                 : Lossy\nBits/(Pixel*Frame)               : 0.451\nStream size                      : 140 MiB (82%)\n\nAudio\nID                               : 192 (0xC0)\nFormat                           : MPEG Audio\nFormat version                   : Version 1\nFormat profile                   : Layer 2\nDuration                         : 17mn 4s\nBit rate mode                    : Constant\nBit rate                         : 224 Kbps\nChannel(s)                       : 2 channels\nSampling rate                    : 44.1 KHz\nCompression mode                 : Lossy\nDelay relative to video          : -67ms\nStream size                      : 27.4 MiB (16%)","torrent":{"xt":"urn:btih:48704baa75f84db639bcbbdfcb96e09549465183","amp;dn":"3+girls+strap+on","amp;tr":["udp%3A%2F%2Ftracker.openbittorrent.com%3A80","udp%3A%2F%2Fopen.demonii.com%3A1337","udp%3A%2F%2Ftracker.coppersurfer.tk%3A6969","udp%3A%2F%2Fexodus.desync.com%3A6969"],"infoHash":"48704baa75f84db639bcbbdfcb96e09549465183","infoHashBuffer":{"type":"Buffer","data":[72,112,75,170,117,248,77,182,57,188,187,223,203,150,224,149,73,70,81,131]},"announce":[],"urlList":[]}}